<?xml version="1.0" standalone="no"?>
<!DOCTYPE svg PUBLIC "-//W3C//DTD SVG 1.1//EN" "http://www.w3.org/Graphics/SVG/1.1/DTD/svg11.dtd"><svg t="1676217331564"
  class="icon" viewBox="0 0 1024 1024" version="1.1" xmlns="http://www.w3.org/2000/svg"
  xmlns:xlink="http://www.w3.org/1999/xlink" width="200" height="200">
  <path
    d="M588.073412 671.656156C588.073412 671.656156 511.936 732.582902 484.230274 748.547765 459.89647 762.56753 437.039686 771.901489 416.676393 778.376784 396.313098 784.842039 378.465882 788.910432 363.137254 790.592 347.808628 792.268549 335.107765 793.346511 325.04847 793.827137 324.093489 794.302746 322.892549 794.548705 321.455686 794.548705L309.955765 794.548705C283.602823 794.548705 258.813489 791.430274 235.578981 785.199686 212.338196 778.974118 192.097882 769.749333 174.848 757.532863 157.603137 745.317647 143.946039 729.984 133.886745 711.538196 123.828706 693.097412 118.794039 671.656156 118.794039 647.22447 119.274667 626.140863 125.024627 606.979765 136.038902 589.729882 147.059451 572.48 161.313882 557.866667 178.803451 545.891137 196.289254 533.910588 215.696314 524.80753 237.014588 518.57694 258.332863 512.352628 279.774118 509.719844 301.333333 510.676079 322.411921 511.636079 342.773961 514.145882 362.41694 518.219295 382.063686 522.292705 400.867137 527.204393 418.833568 532.950588 436.798746 538.705568 453.80894 544.929882 469.857882 551.636079 485.906823 558.347295 501.122511 564.812549 515.494902 571.043137 521.239844 573.434981 527.230746 575.831844 533.461333 578.229961 539.690667 580.621804 546.157177 583.018667 552.862118 585.41553 566.760156 567.685019 578.494746 550.317177 588.073412 533.313254 597.657098 516.30306 605.564235 500.734746 611.793568 486.602039 618.019137 472.464314 622.814118 460.606746 626.167216 451.02306 629.524079 441.445647 631.676235 434.734432 632.637489 430.905726L320.740393 430.905726 320.740393 396.405961 468.063372 396.405961 468.063372 316.640628 263.249568 316.640628 263.249568 282.140863 468.063372 282.140863 468.063372 217.46447C468.063372 213.151372 470.45647 209.680314 475.250196 207.043765 480.038902 204.405961 485.549177 202.611451 491.779765 201.65647 498.960314 200.214588 507.112156 199.494274 516.210196 199.494274L571.548863 199.494274 571.548863 282.140863 782.112628 282.140863 782.112628 316.640628 571.548863 316.640628 571.548863 396.405961 738.87247 396.405961C738.911372 396.166274 738.955295 395.925333 738.990432 395.690667L738.990432 396.405961 738.87247 396.405961C735.504314 417.754353 729.803295 440.268549 721.745568 463.964863 715.039372 484.562823 705.098039 508.038274 691.921568 534.386196 678.745098 560.734118 661.377254 587.807372 639.818039 615.592156 639.818039 615.592156 804.754823 694.47906 978.857412 722.273882 1007.774118 658.140863 1023.872 586.979137 1023.872 512.062746 1023.872 229.32706 794.671686 0.126745 511.936 0.126745 229.201568 0.126745 0 229.32706 0 512.062746 0 794.798432 229.201568 1023.998746 511.936 1023.998746 687.313568 1023.998746 842.088156 935.802981 934.348549 801.35153 840.578511 780.950588 740.99953 739.592784 588.073412 671.656156L588.073412 671.656156Z"
    fill="#027AFF" p-id="2680"></path>
  <path
    d="M185.632628 648.656314C183.711372 736.494432 283.103372 743.023686 298.426981 743.494274 349.073568 745.047844 389.985882 725.920628 421.847844 706.994196 453.706039 688.067765 505.67153 639.195607 507.587765 637.51906 509.505254 635.842511 511.421489 634.042981 513.337726 632.126746 499.445961 624.459295 485.788863 617.391686 472.377726 610.925177 458.960314 604.459921 390.809098 567.85694 330.31906 561.59247 215.784156 549.729882 186.216156 621.930667 185.627607 648.656314L185.632628 648.656314Z"
    fill="#027AFF" p-id="2681"></path>
</svg>