<svg xmlns="http://www.w3.org/2000/svg" xmlns:xlink="http://www.w3.org/1999/xlink" viewBox="0 0 880 310" style="&#10;">
  <g xmlns="http://www.w3.org/2000/svg" transform="translate(0,30) scale(0.48828125)">
    <path
      d="m316.612 467.478c15.537 4.786 39.687-1.088 53.587-16.476-6.359-23.927-20.742-67.352-40.117-93.521-9.219-12.452-26.787-15.071-39.234-5.853-12.45 9.218-15.071 26.785-5.852 39.235 13.801 18.642 26.907 58.032 31.616 76.615z"
      fill="#edbf76" data-original="#edbf76" class="" />
    <path
      d="m316.612 467.478c.76 2.999 1.309 5.475 1.599 7.214 2.542 15.251 16.964 25.607 32.279 23.059 15.282-2.546 25.605-16.998 23.059-32.279-.48-2.882-1.618-7.955-3.35-14.469-17.433-.535-40.009 7.099-53.587 16.475z"
      fill="#d99a84" data-original="#d99a84" />
    <path
      d="m70.089 363.621c-10.128 9.858-27.088 12.683-40.708 11.191-8.09-.886-12.308-9.834-8.159-16.834 4.721-7.965 4.181-17.13 15.428-28.377 9.568-9.568 25.242-9.308 34.478.781 8.638 9.436 8.127 24.317-1.039 33.239z"
      fill="#d99a84" data-original="#d99a84" />
    <path
      d="m71.128 337.882c-1.919 0-3.839-.732-5.304-2.197-2.929-2.929-2.929-7.678 0-10.606 23.712-23.712 61.351-16.419 75.865-9.174 3.706 1.85 5.211 6.354 3.36 10.06-1.849 3.708-6.355 5.211-10.06 3.361-10.908-5.445-40.796-11.403-58.559 6.359-1.463 1.465-3.383 2.197-5.302 2.197z"
      fill="#edbf76" data-original="#edbf76" class="" />
    <path
      d="m382.721 90.884c12.419 12.419 32.667 12.305 45.226-.254 21.977-21.977 30.47-50.604 18.051-63.023s-41.046-3.926-63.023 18.051c-12.559 12.559-12.673 32.807-.254 45.226z"
      fill="#edbf76" data-original="#edbf76" class="" />
    <g fill="#e0ab99">
      <path
        d="m317.155 72.665c-4.143 0-7.5-3.358-7.5-7.5v-57.665c0-4.142 3.357-7.5 7.5-7.5s7.5 3.358 7.5 7.5v57.665c0 4.142-3.357 7.5-7.5 7.5z"
        fill="#e0ab99" data-original="#e0ab99" class="" />
      <path
        d="m359.131 72.665c-4.143 0-7.5-3.358-7.5-7.5v-57.665c0-4.142 3.357-7.5 7.5-7.5s7.5 3.358 7.5 7.5v57.665c0 4.142-3.358 7.5-7.5 7.5z"
        fill="#e0ab99" data-original="#e0ab99" class="" />
    </g>
    <path
      d="m381.138 216.613c19.398-21.401 65.195-83.884 80.687-133.227-27.911-26.687-71.225-41.746-114.048-41.746-54.981 0-92.929 40.613-92.929 90.711v126.728c0 5.174-4.288 9.324-9.458 9.125-3.73-.143-7.51-.214-11.331-.214-67.147 0-120.458 28.543-120.458 91.74 0 60.858 53.311 67.056 120.458 67.056s121.58-6.159 121.58-79.398v-122.238c0-5.136 4.283-9.255 9.414-9.008 5.324.256 10.703.421 16.085.471z"
      fill="#f1d88c" data-original="#f1d88c" class="" />
    <path
      d="m461.825 83.386c-86.179 17.302-85.103 103.171-80.687 133.227 52.423.495 105.163-9.835 110.474-52.259 4.115-32.865-8.252-60.377-29.787-80.968z"
      fill="#e0ab99" data-original="#e0ab99" class="" />
    <g>
      <g>
        <ellipse cx="337.112" cy="134.777" fill="#eca0aa" rx="29.356" ry="23.378" data-original="#eca0aa" />
      </g>
      <g fill="#565e75">
        <path
          d="m368.193 116.838c-4.143 0-7.5-3.358-7.5-7.5 0-3.569-2.903-6.473-6.473-6.473s-6.473 2.904-6.473 6.473c0 4.142-3.357 7.5-7.5 7.5-4.142 0-7.5-3.358-7.5-7.5 0-11.84 9.633-21.473 21.473-21.473s21.473 9.633 21.473 21.473c0 4.143-3.357 7.5-7.5 7.5z"
          fill="#565e75" data-original="#565e75" />
        <path
          d="m434.169 169.031c-7.848 0-15.311-3.398-20.475-9.324-2.722-3.122-2.397-7.86.725-10.582s7.86-2.396 10.581.726c2.315 2.657 5.657 4.18 9.169 4.18 3.511 0 6.853-1.523 9.168-4.18 2.72-3.124 7.46-3.447 10.581-.726 3.123 2.722 3.447 7.46.726 10.582-5.166 5.925-12.627 9.324-20.475 9.324z"
          fill="#565e75" data-original="#565e75" />
      </g>
    </g>
    <path
      d="m166.324 359.553c-15.149-3.259-30.063 6.381-33.319 21.527-7.52 34.976-14.506 53.9-27.035 71.666-1.236 21.809 20.885 38.91 44.594 34.099 17.817-24.631 27.94-50.501 37.287-93.973 3.256-15.145-6.381-30.062-21.527-33.319z"
      fill="#f1d88c" data-original="#f1d88c" class="" />
    <path
      d="m249.878 465.402c8.299 18.828 30.925 25.572 52.524 19.791 6.708-21.229 9.667-55.431.922-98.831-3.061-15.187-17.854-25.018-33.039-21.956-15.187 3.06-25.016 17.852-21.957 33.038 5.586 27.72 5.164 54.081 1.55 67.958z"
      fill="#f1d88c" data-original="#f1d88c" class="" />
    <g fill="#e0ab99">
      <path
        d="m158.167 320.191c27.053 13.638 47.334 19.883 60.151-7.525 6.887-14.726 4.799-31.282-2.513-43.938-30.878 2.564-57.711 11.855-76.127 28.545 2.513 9.186 8.605 17.936 18.489 22.918z"
        fill="#e0ab99" data-original="#e0ab99" class="" />
      <path d="m254.848 143.986v72.582c12.031.642 22.791-2.046 31.593-10.849 12.335-12.335 17.982-71.566-31.593-61.733z"
        fill="#e0ab99" data-original="#e0ab99" class="" />
      <path
        d="m269.834 320.076c-10.947 6.344-24.811 18.105-24.476 30.175s19.111 26.487 36.546 19.111 28.164-17.435 23.805-33.863c-4.359-16.429-23.388-22.66-35.875-15.423z"
        fill="#e0ab99" data-original="#e0ab99" class="" />
      <path
        d="m105.97 452.747c-1.571 2.228-3.225 4.439-4.982 6.66-9.614 12.147-7.559 29.789 4.588 39.403 12.149 9.615 29.79 7.558 39.403-4.588 1.944-2.457 3.803-4.91 5.586-7.376-10.551-14.488-33.849-30.292-44.595-34.099z"
        fill="#e0ab99" data-original="#e0ab99" class="" />
      <path
        d="m297.928 496.487c1.603-3.205 3.113-6.989 4.474-11.294-13.255-10.546-37.156-18.102-52.523-19.791-.62 2.382-1.332 4.407-2.127 5.997-6.928 13.856-1.312 30.705 12.545 37.633 13.878 6.94 30.716 1.286 37.631-12.545z"
        fill="#e0ab99" data-original="#e0ab99" class="" />
    </g>
    <path
      d="m297.744 102.123c-12.419 12.419-32.667 12.305-45.226-.254-21.977-21.977-30.469-50.604-18.051-63.023 12.419-12.419 41.046-3.926 63.023 18.051 12.559 12.559 12.673 32.807.254 45.226z"
      fill="#edbf76" data-original="#edbf76" class="" />
  </g>
  <g
    transform="translate(-347.3714285714294,-99.74690793650788) translate(928.4,254.92499999999998) rotate(0) scale(0.31) translate(-928.4,-254.92499999999998)">
    <svg xmlns="http://www.w3.org/2000/svg" xmlns:link="http://www.w3.org/1999/xlink" width="1856.8"
      height="509.84999999999997" viewBox="0 0 1856.8 509.84999999999997">
      <path
        d="M278.9 138.6L293.2 0 347.1 0 332.8 138.6 447.7 138.6 442.2 191.4 327.3 191.4 302.5 426.8 248.6 426.8 273.4 191.4 250.3 191.4 162.3 399.3 124.8 399.3 199.1 191.4 157.9 191.4 162.8 138.6 278.9 138.6ZM67.7 9.9L130.9 9.9 147.4 117.1 106.1 117.1 67.7 9.9ZM183.2 17L239.3 17 248.6 117.7 211.8 117.7 183.2 17ZM365.2 117.7L395.4 17 451 17 402.6 117.7 365.2 117.7ZM37.4 158.9L133.1 158.9 105.6 415.2 145.2 444.9 424.6 444.9 405.4 498.8 130.3 498.8 77.5 456.5 41.8 509.3 0 509.3 51.2 415.8 73.2 212.3 31.9 212.3 37.4 158.9ZM388.3 399.3L345.9 214.5 400.4 214.5 422.9 399.3 388.3 399.3ZM566.5 271.7L504.4 509.3 465.3 509.3 516.4 265.6 541.8 27.5 716.1 27.5 718.8 0.5 773.8 0.5 771.6 27.5 934.4 27.5 928.9 78.1 807.9 78.1 802.4 125.4 911.9 125.4 897 271.7 566.5 271.7ZM647.9 78.1L586.8 78.1 582.4 125.4 642.9 125.4 647.9 78.1ZM759 78.1L697.9 78.1 693 125.4 753.5 125.4 759 78.1ZM637.4 169.9L576.9 169.9 570.9 227.1 631.4 227.1 637.4 169.9ZM748.5 169.9L688 169.9 682 227.1 743 227.1 748.5 169.9ZM858.5 169.9L798 169.9 792 227.1 852.5 227.1 858.5 169.9ZM710 446.1L706.2 486.2 573.1 506.6 596.2 288.8 645.1 288.8 639.6 338.3 718.3 338.3 713.3 384.4 635.3 384.4 627 455.4 710 446.1ZM887.7 457.1L867.9 502.7 719.9 502.7 743 288.8 792 288.8 785.4 350.3 895.9 305.8 891 354.2 781 396.6 773.8 457.1 887.7 457.1ZM1375 207.3L1346.4 256.8 985 256.8 1010.9 13.2 1371.1 13.2 1354.6 162.3 1051.6 162.3 1046.1 207.3 1375 207.3ZM1309.5 61.6L1061.5 61.6 1056 113.3 1304.6 113.3 1309.5 61.6ZM1305.1 348.7L1288.1 509.3 1197.9 509.3 1187.5 458.7 1236.4 458.7 1248 348.7 951.5 348.7 957 299.2 1252.9 299.2 1256.2 270.1 1313.4 270.1 1310.1 299.2 1375 299.2 1369.5 348.7 1305.1 348.7ZM1081.8 371.8L1108.3 479.6 1063.7 479.6 1016.9 371.8 1081.8 371.8ZM1494.3 267.3L1445.4 509.3 1411.8 509.3 1448.1 267.3 1427.3 267.3 1431.1 220.6 1453.1 220.6 1472.3 40.7 1509.8 40.7 1524 0.5 1577.4 0.5 1555.4 40.7 1625.8 40.7 1576.3 509.3 1511.4 509.3 1503.7 458.7 1535.6 458.7 1555.4 267.3 1494.3 267.3ZM1856.8 46.8L1851.8 99.5 1631.8 99.5 1637.9 46.8 1718.8 46.8 1723.1 0.5 1780.3 0.5 1776 46.8 1856.8 46.8ZM1574.1 87.4L1513 87.4 1498.8 220.6 1560.3 220.6 1574.1 87.4ZM1552.1 111.6L1552.1 196.9 1530.1 196.9 1520.2 111.6 1552.1 111.6ZM1695.1 207.3L1627.5 509.8 1583.5 509.8 1644 191.9 1647.3 154 1824.3 154 1793 451 1825.5 451 1806.2 502.7 1734.7 502.7 1765.5 207.3 1695.1 207.3ZM1532.8 290.9L1532.3 391.1 1509.8 391.1 1501 290.9 1532.8 290.9Z"
        fill="#e4e6e7" stroke-width="1" stroke-linecap="round" />
    </svg></g>
</svg>