<svg xmlns="http://www.w3.org/2000/svg" version="1.1" xmlns:xlink="http://www.w3.org/1999/xlink"
  xmlns:svgjs="http://svgjs.com/svgjs"  width="512" height="512" x="0" y="0" viewBox="0 0 512 512" xml:space="preserve">
  <rect xmlns="http://www.w3.org/2000/svg" fill="#fff" width="100%" height="100%" rx="90"/>
  <g  transform="matrix(0.84,0,0,0.84,40,40)" clip-path="url(#clip)">
    <g xmlns="http://www.w3.org/2000/svg" >
      <path
        d="m316.612 467.478c15.537 4.786 39.687-1.088 53.587-16.476-6.359-23.927-20.742-67.352-40.117-93.521-9.219-12.452-26.787-15.071-39.234-5.853-12.45 9.218-15.071 26.785-5.852 39.235 13.801 18.642 26.907 58.032 31.616 76.615z"
        fill="#edbf76" data-original="#edbf76" ></path>
      <path
        d="m316.612 467.478c.76 2.999 1.309 5.475 1.599 7.214 2.542 15.251 16.964 25.607 32.279 23.059 15.282-2.546 25.605-16.998 23.059-32.279-.48-2.882-1.618-7.955-3.35-14.469-17.433-.535-40.009 7.099-53.587 16.475z"
        fill="#d99a84" data-original="#d99a84"></path>
      <path
        d="m70.089 363.621c-10.128 9.858-27.088 12.683-40.708 11.191-8.09-.886-12.308-9.834-8.159-16.834 4.721-7.965 4.181-17.13 15.428-28.377 9.568-9.568 25.242-9.308 34.478.781 8.638 9.436 8.127 24.317-1.039 33.239z"
        fill="#d99a84" data-original="#d99a84"></path>
      <path
        d="m71.128 337.882c-1.919 0-3.839-.732-5.304-2.197-2.929-2.929-2.929-7.678 0-10.606 23.712-23.712 61.351-16.419 75.865-9.174 3.706 1.85 5.211 6.354 3.36 10.06-1.849 3.708-6.355 5.211-10.06 3.361-10.908-5.445-40.796-11.403-58.559 6.359-1.463 1.465-3.383 2.197-5.302 2.197z"
        fill="#edbf76" data-original="#edbf76"></path>
      <path
        d="m382.721 90.884c12.419 12.419 32.667 12.305 45.226-.254 21.977-21.977 30.47-50.604 18.051-63.023s-41.046-3.926-63.023 18.051c-12.559 12.559-12.673 32.807-.254 45.226z"
        fill="#edbf76" data-original="#edbf76"></path>
      <g fill="#e0ab99">
        <path
          d="m317.155 72.665c-4.143 0-7.5-3.358-7.5-7.5v-57.665c0-4.142 3.357-7.5 7.5-7.5s7.5 3.358 7.5 7.5v57.665c0 4.142-3.357 7.5-7.5 7.5z"
          fill="#e0ab99" data-original="#e0ab99"></path>
        <path
          d="m359.131 72.665c-4.143 0-7.5-3.358-7.5-7.5v-57.665c0-4.142 3.357-7.5 7.5-7.5s7.5 3.358 7.5 7.5v57.665c0 4.142-3.358 7.5-7.5 7.5z"
          fill="#e0ab99" data-original="#e0ab99"></path>
      </g>
      <path
        d="m381.138 216.613c19.398-21.401 65.195-83.884 80.687-133.227-27.911-26.687-71.225-41.746-114.048-41.746-54.981 0-92.929 40.613-92.929 90.711v126.728c0 5.174-4.288 9.324-9.458 9.125-3.73-.143-7.51-.214-11.331-.214-67.147 0-120.458 28.543-120.458 91.74 0 60.858 53.311 67.056 120.458 67.056s121.58-6.159 121.58-79.398v-122.238c0-5.136 4.283-9.255 9.414-9.008 5.324.256 10.703.421 16.085.471z"
        fill="#f1d88c" data-original="#f1d88c"></path>
      <path
        d="m461.825 83.386c-86.179 17.302-85.103 103.171-80.687 133.227 52.423.495 105.163-9.835 110.474-52.259 4.115-32.865-8.252-60.377-29.787-80.968z"
        fill="#e0ab99" data-original="#e0ab99"></path>
      <g>
        <g>
          <ellipse cx="337.112" cy="134.777" fill="#eca0aa" rx="29.356" ry="23.378" data-original="#eca0aa"></ellipse>
        </g>
        <g fill="#565e75">
          <path
            d="m368.193 116.838c-4.143 0-7.5-3.358-7.5-7.5 0-3.569-2.903-6.473-6.473-6.473s-6.473 2.904-6.473 6.473c0 4.142-3.357 7.5-7.5 7.5-4.142 0-7.5-3.358-7.5-7.5 0-11.84 9.633-21.473 21.473-21.473s21.473 9.633 21.473 21.473c0 4.143-3.357 7.5-7.5 7.5z"
            fill="#565e75" data-original="#565e75"></path>
          <path
            d="m434.169 169.031c-7.848 0-15.311-3.398-20.475-9.324-2.722-3.122-2.397-7.86.725-10.582s7.86-2.396 10.581.726c2.315 2.657 5.657 4.18 9.169 4.18 3.511 0 6.853-1.523 9.168-4.18 2.72-3.124 7.46-3.447 10.581-.726 3.123 2.722 3.447 7.46.726 10.582-5.166 5.925-12.627 9.324-20.475 9.324z"
            fill="#565e75" data-original="#565e75"></path>
        </g>
      </g>
      <path
        d="m166.324 359.553c-15.149-3.259-30.063 6.381-33.319 21.527-7.52 34.976-14.506 53.9-27.035 71.666-1.236 21.809 20.885 38.91 44.594 34.099 17.817-24.631 27.94-50.501 37.287-93.973 3.256-15.145-6.381-30.062-21.527-33.319z"
        fill="#f1d88c" data-original="#f1d88c"></path>
      <path
        d="m249.878 465.402c8.299 18.828 30.925 25.572 52.524 19.791 6.708-21.229 9.667-55.431.922-98.831-3.061-15.187-17.854-25.018-33.039-21.956-15.187 3.06-25.016 17.852-21.957 33.038 5.586 27.72 5.164 54.081 1.55 67.958z"
        fill="#f1d88c" data-original="#f1d88c"></path>
      <g fill="#e0ab99">
        <path
          d="m158.167 320.191c27.053 13.638 47.334 19.883 60.151-7.525 6.887-14.726 4.799-31.282-2.513-43.938-30.878 2.564-57.711 11.855-76.127 28.545 2.513 9.186 8.605 17.936 18.489 22.918z"
          fill="#e0ab99" data-original="#e0ab99"></path>
        <path
          d="m254.848 143.986v72.582c12.031.642 22.791-2.046 31.593-10.849 12.335-12.335 17.982-71.566-31.593-61.733z"
          fill="#e0ab99" data-original="#e0ab99"></path>
        <path
          d="m269.834 320.076c-10.947 6.344-24.811 18.105-24.476 30.175s19.111 26.487 36.546 19.111 28.164-17.435 23.805-33.863c-4.359-16.429-23.388-22.66-35.875-15.423z"
          fill="#e0ab99" data-original="#e0ab99"></path>
        <path
          d="m105.97 452.747c-1.571 2.228-3.225 4.439-4.982 6.66-9.614 12.147-7.559 29.789 4.588 39.403 12.149 9.615 29.79 7.558 39.403-4.588 1.944-2.457 3.803-4.91 5.586-7.376-10.551-14.488-33.849-30.292-44.595-34.099z"
          fill="#e0ab99" data-original="#e0ab99"></path>
        <path
          d="m297.928 496.487c1.603-3.205 3.113-6.989 4.474-11.294-13.255-10.546-37.156-18.102-52.523-19.791-.62 2.382-1.332 4.407-2.127 5.997-6.928 13.856-1.312 30.705 12.545 37.633 13.878 6.94 30.716 1.286 37.631-12.545z"
          fill="#e0ab99" data-original="#e0ab99"></path>
      </g>
      <path
        d="m297.744 102.123c-12.419 12.419-32.667 12.305-45.226-.254-21.977-21.977-30.469-50.604-18.051-63.023 12.419-12.419 41.046-3.926 63.023 18.051 12.559 12.559 12.673 32.807.254 45.226z"
        fill="#edbf76" data-original="#edbf76"></path>
    </g>
  </g>
</svg>